<?xml version="1.0" encoding="UTF-8" standalone="no"?>
<svg
   xmlns:dc="http://purl.org/dc/elements/1.1/"
   xmlns:cc="http://creativecommons.org/ns#"
   xmlns:rdf="http://www.w3.org/1999/02/22-rdf-syntax-ns#"
   xmlns:svg="http://www.w3.org/2000/svg"
   xmlns="http://www.w3.org/2000/svg"
   xmlns:sodipodi="http://sodipodi.sourceforge.net/DTD/sodipodi-0.dtd"
   xmlns:inkscape="http://www.inkscape.org/namespaces/inkscape"
   id="Layer_1"
   data-name="Layer 1"
   viewBox="0 0 735 852"
   version="1.1"
   sodipodi:docname="virtuoso.svg"
   inkscape:version="0.92.2 5c3e80d, 2017-08-06">
  <metadata
     id="metadata7730">
    <rdf:RDF>
      <cc:Work
         rdf:about="">
        <dc:format>image/svg+xml</dc:format>
        <dc:type
           rdf:resource="http://purl.org/dc/dcmitype/StillImage" />
        <dc:title>RStudio_Hex 2016 v7 outlines</dc:title>
      </cc:Work>
    </rdf:RDF>
  </metadata>
  <sodipodi:namedview
     pagecolor="#ffffff"
     bordercolor="#666666"
     borderopacity="1"
     objecttolerance="10"
     gridtolerance="10"
     guidetolerance="10"
     inkscape:pageopacity="0"
     inkscape:pageshadow="2"
     inkscape:window-width="1290"
     inkscape:window-height="816"
     id="namedview7728"
     showgrid="false"
     inkscape:zoom="0.55399061"
     inkscape:cx="164.50939"
     inkscape:cy="502.05618"
     inkscape:window-x="439"
     inkscape:window-y="25"
     inkscape:window-maximized="0"
     inkscape:current-layer="Layer_1" />
  <defs
     id="defs7613">
    <style
       id="style7608">.cls-1{fill:#ba6f38;}.cls-2{clip-path:url(#clip-path);}.cls-3{fill:#164f86;}.cls-4{fill:#14275b;}.cls-5{fill:#e6b35a;}.cls-6{fill:#fff;}.cls-7{fill:#ba3224;}.cls-8{fill:#b13728;}.cls-9{fill:#aa3729;}.cls-10{fill:#221819;}.cls-11{fill:#1a171b;opacity:0.1;}.cls-12{opacity:0.94;}</style>
    <clipPath
       id="clip-path">
      <polygon
         class="cls-1"
         points="369.5 8 728.2 215.1 728.2 637.2 369.5 845.6 2.8 637.2 2.8 215.1 369.5 8"
         id="polygon7610" />
    </clipPath>
    <style
       id="style4666">.cls-1{fill:#ba6f38;}.cls-2{clip-path:url(#clip-path);}.cls-3{fill:#164f86;}.cls-4{fill:#14275b;}.cls-5{fill:#e6b35a;}.cls-6{fill:#fff;}.cls-7{fill:#ba3224;}.cls-8{fill:#b13728;}.cls-9{fill:#aa3729;}.cls-10{fill:#221819;}.cls-11{fill:#1a171b;opacity:0.1;}.cls-12{opacity:0.94;}</style>
    <clipPath
       id="clip-path-2">
      <polygon
         id="polygon4668"
         points="369.5 8 728.2 215.1 728.2 637.2 369.5 845.6 2.8 637.2 2.8 215.1 369.5 8"
         class="cls-1" />
    </clipPath>
  </defs>
  <title
     id="title7615">RStudio_Hex 2016 v7 outlines</title>
  <polygon
     class="cls-1"
     points="369.5 8 728.2 215.1 728.2 637.2 369.5 845.6 2.8 637.2 2.8 215.1 369.5 8"
     id="polygon7617" />
  <g
     class="cls-2"
     clip-path="url(#clip-path)"
     id="g7621">
    <circle
       class="cls-3"
       cx="365.5"
       cy="438"
       r="442.1"
       id="circle7619" />
  </g>
  <path
     class="cls-4"
     d="M705.6,196.8L427.8,36.4,367.5,1.6,307.2,36.4,29.3,196.8,0.1,213.7V638l29.3,16.9L310.6,817.3l56.9,32.8,56.9-32.8L705.6,654.9,734.9,638V213.7Zm0,425.3L367.5,817.3,29.3,622.1V231.6L367.5,36.4h0L705.6,231.6V622.1Z"
     id="path7623" />
  <g
     style="overflow:visible;fill:#ffffff"
     id="g12611"
     transform="matrix(2.7222119,0,0,2.5236783,212.7665,91.661335)">
    <g
       id="g12591"
       style="fill:#ffffff;image-rendering:optimizeQuality;shape-rendering:geometricPrecision;text-rendering:geometricPrecision">
      <path
         id="path12573"
         d="m 84.45,66.836 c -0.636,-0.337 -1.284,-0.624 -1.936,-0.879 l 0.466,-0.038 c 0,0 -4.151,-1.838 -4.514,-15.18 -0.359,-13.344 3.957,-15.62 3.957,-15.62 l -0.62,0.027 C 85.064,33.473 87.869,30.83 89.72,27.342 94.543,18.27 91.092,7.001 82.018,2.177 72.94,-2.641 61.674,0.802 56.854,9.883 54.872,13.608 54.309,17.7 54.935,21.566 L 54.723,21.24 c 0,0 1.093,4.842 -10.258,11.888 -11.349,7.05 -16.469,3.54 -16.469,3.54 l 0.326,0.48 C 27.997,36.947 27.686,36.742 27.347,36.565 18.269,31.741 7,35.188 2.178,44.266 c -4.82,9.077 -1.372,20.341 7.703,25.167 6.766,3.591 14.744,2.59 20.365,-1.914 l -0.122,0.236 c 0,0 4.132,-3.399 16.04,2.994 9.4,5.044 10.796,9.988 10.975,11.846 -0.246,6.893 3.347,13.654 9.847,17.107 9.075,4.825 20.344,1.375 25.164,-7.701 4.824,-9.075 1.378,-20.345 -7.7,-25.165 z m -20.984,2.446 c -1.504,0.532 -5.801,1.121 -14.847,-3.73 -9.797,-5.26 -11.251,-9.654 -11.464,-10.973 0.139,-1.6 0.05,-3.197 -0.223,-4.755 l 0.06,0.09 c 0,0 -0.798,-4.274 10.412,-11.235 10.033,-6.228 14.594,-4.989 15.443,-4.664 0.546,0.371 1.112,0.717 1.706,1.033 1.129,0.6 2.293,1.07 3.472,1.418 1.38,1.314 3.92,5.045 4.184,14.854 0.27,9.883 -2.634,13.694 -4.217,15.042 -1.63,0.738 -3.156,1.723 -4.526,2.92 z"
         inkscape:connector-curvature="0"
         style="fill:#ffffff" />
      <g
         id="g12577"
         style="fill:#ffffff">
        <path
           id="path12575"
           d="m 62.239,8.1 c -5.415,5.923 -5.529,14.636 -0.312,19.566 -2.579,-2.483 -2.523,-7.651 0.083,-12.597 0.335,-0.443 1.306,-1.49 2.725,-1.014 0.143,0.049 0.237,0.062 0.292,0.053 0.321,0.069 0.65,0.11 0.99,0.095 2.155,-0.098 3.822,-1.921 3.725,-4.077 C 69.698,9.159 69.297,8.303 68.677,7.646 73.679,4.369 79.419,3.994 81.771,6.142 l 0.09,0.006 C 76.488,1.242 67.705,2.119 62.239,8.1 Z"
           inkscape:connector-curvature="0"
           style="fill:#ffffff" />
      </g>
      <g
         id="g12583"
         style="fill:#ffffff">
        <path
           id="path12579"
           d="M 7.632,62.845 C 7.586,62.798 7.539,62.743 7.491,62.697 c 0.03,0.031 0.059,0.069 0.095,0.102 z"
           inkscape:connector-curvature="0"
           style="fill:#ffffff" />
        <path
           id="path12581"
           d="M 7.805,43.13 C 2.389,49.054 2.276,57.765 7.492,62.696 4.914,60.212 4.969,55.044 7.575,50.098 c 0.336,-0.444 1.308,-1.49 2.727,-1.014 0.141,0.049 0.236,0.061 0.292,0.054 0.321,0.069 0.651,0.11 0.99,0.095 2.156,-0.099 3.822,-1.922 3.725,-4.076 -0.045,-0.967 -0.445,-1.824 -1.063,-2.48 4.999,-3.276 10.74,-3.654 13.092,-1.505 l 0.089,0.008 C 22.054,36.271 13.269,37.147 7.805,43.13 Z"
           inkscape:connector-curvature="0"
           style="fill:#ffffff" />
      </g>
      <g
         id="g12589"
         style="fill:#ffffff">
        <path
           id="path12585"
           d="m 65.256,92.504 c -0.047,-0.048 -0.094,-0.102 -0.141,-0.148 0.029,0.031 0.059,0.069 0.094,0.101 z"
           inkscape:connector-curvature="0"
           style="fill:#ffffff" />
        <path
           id="path12587"
           d="m 65.428,72.786 c -5.416,5.926 -5.529,14.639 -0.313,19.569 -2.58,-2.483 -2.523,-7.653 0.082,-12.597 0.336,-0.445 1.307,-1.49 2.727,-1.014 0.143,0.047 0.235,0.061 0.292,0.053 0.32,0.069 0.651,0.11 0.99,0.096 2.154,-0.1 3.82,-1.924 3.723,-4.08 -0.044,-0.966 -0.445,-1.822 -1.063,-2.479 5,-3.275 10.739,-3.652 13.093,-1.504 l 0.088,0.007 c -5.37,-4.907 -14.156,-4.03 -19.619,1.949 z"
           inkscape:connector-curvature="0"
           style="fill:#ffffff" />
      </g>
    </g>
  </g>
  <path
     class="cls-11"
     d="M499.6,326L373.3,503.4a6,6,0,0,0-2.1,4.5v7.2l-31.1,16v21.8h54.9V507.9a6,6,0,0,1,2.1-4.5L523.4,326H499.6Z"
     id="path7683" />
  <path
     id="path12785"
     d="m 492.95764,552.84388 v 20.41074 c 0,17.9872 -52.63004,32.65745 -117.50001,32.65745 -64.86996,0 -117.49999,-14.67025 -117.49999,-32.65745 v -20.41074 c 0,-17.98719 52.63003,-32.65744 117.49999,-32.65744 64.86997,0 117.50001,14.67025 117.50001,32.65744 z m 0,45.92439 v 45.92438 c 0,17.9872 -52.63004,32.65745 -117.50001,32.65745 -64.86996,0 -117.49999,-14.67025 -117.49999,-32.65745 v -45.92438 c 25.24413,14.79794 71.44839,21.6868 117.49999,21.6868 46.05161,0 92.25535,-6.88886 117.50001,-21.6868 z m 0,71.43803 v 45.92438 c 0,17.9872 -52.63004,32.65745 -117.50001,32.65745 -64.86996,0 -117.49999,-14.67025 -117.49999,-32.65745 V 670.2063 c 25.24413,14.79794 71.44839,21.68681 117.49999,21.68681 46.05161,0 92.25535,-6.88887 117.50001,-21.68681 z"
     inkscape:connector-curvature="0"
     style="fill:#ffffff;stroke-width:0.4839491" />
  <path
     class="cls-10"
     d="m 420.92272,515.19276 a 8.2918036,7.193839 0 0 0 -2.90213,5.39537 v 53.8339 h -75.7318 v -53.8339 a 8.2918036,7.193839 0 0 0 -2.90213,-5.39537 L 164.5678,302.49491 h 431.03559 z"
     id="path7679"
     inkscape:connector-curvature="0"
     style="fill:#14275b;fill-opacity:1;stroke-width:1.2872225" />
  <g
     aria-label="virtuoso"
     transform="matrix(3.2987202,0,0,3.6822306,-165.56149,-933.89668)"
     style="font-style:normal;font-variant:normal;font-weight:bold;font-stretch:normal;font-size:40px;line-height:125%;font-family:sans-serif;-inkscape-font-specification:'sans-serif Bold';letter-spacing:0px;word-spacing:0px;fill:#ffffff;fill-opacity:1;stroke:none;stroke-width:1px;stroke-linecap:butt;stroke-linejoin:miter;stroke-opacity:1"
     id="flowRoot12796">
    <path
       d="m 72.808594,354.67578 h 6.992187 L 85.25,369.79297 90.679687,354.67578 h 7.011719 l -8.613281,21.875 h -7.675781 z"
       id="path12804"
       inkscape:connector-curvature="0" />
    <path
       d="m 101.65625,354.67578 h 6.99219 v 21.875 h -6.99219 z m 0,-8.51562 h 6.99219 v 5.70312 h -6.99219 z"
       id="path12806"
       inkscape:connector-curvature="0" />
    <path
       d="m 131.65625,360.63281 q -0.91797,-0.42969 -1.83594,-0.625 -0.89844,-0.21484 -1.8164,-0.21484 -2.69532,0 -4.16016,1.73828 -1.44531,1.71875 -1.44531,4.94141 v 10.07812 h -6.99219 v -21.875 h 6.99219 v 3.59375 q 1.34765,-2.14844 3.08594,-3.125 1.75781,-0.99609 4.19921,-0.99609 0.35157,0 0.76172,0.0391 0.41016,0.0195 1.19141,0.11719 z"
       id="path12808"
       inkscape:connector-curvature="0" />
    <path
       d="m 142.80859,348.46484 v 6.21094 h 7.20703 v 5 h -7.20703 v 9.27734 q 0,1.52344 0.60547,2.07032 0.60547,0.52734 2.40235,0.52734 h 3.59375 v 5 h -5.9961 q -4.14062,0 -5.8789,-1.71875 -1.71875,-1.73828 -1.71875,-5.87891 v -9.27734 h -3.47657 v -5 h 3.47657 v -6.21094 z"
       id="path12810"
       inkscape:connector-curvature="0" />
    <path
       d="m 154.07812,368.03516 v -13.35938 h 7.03125 v 2.1875 q 0,1.77734 -0.0195,4.47266 -0.0195,2.67578 -0.0195,3.57422 0,2.63671 0.13672,3.80859 0.13672,1.15234 0.46875,1.67969 0.42969,0.68359 1.11328,1.05468 0.70313,0.3711 1.60156,0.3711 2.1875,0 3.4375,-1.67969 1.25,-1.67969 1.25,-4.66797 v -10.80078 h 6.99219 v 21.875 h -6.99219 v -3.16406 q -1.58203,1.91406 -3.35937,2.83203 -1.75781,0.89844 -3.88672,0.89844 -3.78906,0 -5.78125,-2.32422 -1.97266,-2.32422 -1.97266,-6.75781 z"
       id="path12812"
       inkscape:connector-curvature="0" />
    <path
       d="m 193.23828,359.14844 q -2.32422,0 -3.55469,1.67968 -1.21093,1.66016 -1.21093,4.80469 0,3.14453 1.21093,4.82422 1.23047,1.66016 3.55469,1.66016 2.28516,0 3.49609,-1.66016 1.21094,-1.67969 1.21094,-4.82422 0,-3.14453 -1.21094,-4.80469 -1.21093,-1.67968 -3.49609,-1.67968 z m 0,-5 q 5.64453,0 8.80859,3.04687 3.1836,3.04688 3.1836,8.4375 0,5.39063 -3.1836,8.4375 -3.16406,3.04688 -8.80859,3.04688 -5.66406,0 -8.86719,-3.04688 -3.18359,-3.04687 -3.18359,-8.4375 0,-5.39062 3.18359,-8.4375 3.20313,-3.04687 8.86719,-3.04687 z"
       id="path12814"
       inkscape:connector-curvature="0" />
    <path
       d="m 227.41797,355.35937 v 5.3125 q -2.2461,-0.9375 -4.33594,-1.40625 -2.08984,-0.46875 -3.94531,-0.46875 -1.99219,0 -2.96875,0.50782 -0.95703,0.48828 -0.95703,1.52343 0,0.83985 0.72265,1.28907 0.74219,0.44922 2.63672,0.66406 l 1.23047,0.17578 q 5.37109,0.68359 7.22656,2.24609 1.85547,1.5625 1.85547,4.90235 0,3.49609 -2.57812,5.2539 -2.57813,1.75782 -7.69532,1.75782 -2.16796,0 -4.49218,-0.35157 -2.30469,-0.33203 -4.7461,-1.01562 v -5.3125 q 2.08985,1.01562 4.27735,1.52344 2.20703,0.50781 4.47265,0.50781 2.05078,0 3.08594,-0.56641 1.03516,-0.5664 1.03516,-1.67968 0,-0.9375 -0.72266,-1.38672 -0.70312,-0.46875 -2.83203,-0.72266 l -1.23047,-0.15625 q -4.66797,-0.58594 -6.54297,-2.16797 -1.875,-1.58203 -1.875,-4.80469 0,-3.47656 2.38281,-5.15625 2.38282,-1.67968 7.30469,-1.67968 1.9336,0 4.0625,0.29297 2.12891,0.29296 4.62891,0.91796 z"
       id="path12816"
       inkscape:connector-curvature="0" />
    <path
       d="m 244.56641,359.14844 q -2.32422,0 -3.55469,1.67968 -1.21094,1.66016 -1.21094,4.80469 0,3.14453 1.21094,4.82422 1.23047,1.66016 3.55469,1.66016 2.28515,0 3.49609,-1.66016 1.21094,-1.67969 1.21094,-4.82422 0,-3.14453 -1.21094,-4.80469 -1.21094,-1.67968 -3.49609,-1.67968 z m 0,-5 q 5.64453,0 8.80859,3.04687 3.18359,3.04688 3.18359,8.4375 0,5.39063 -3.18359,8.4375 -3.16406,3.04688 -8.80859,3.04688 -5.66407,0 -8.86719,-3.04688 -3.1836,-3.04687 -3.1836,-8.4375 0,-5.39062 3.1836,-8.4375 3.20312,-3.04687 8.86719,-3.04687 z"
       id="path12818"
       inkscape:connector-curvature="0" />
  </g>
</svg>
